<?xml version="1.0" encoding="UTF-8"?>
<svg id="Layer_2" data-name="Layer 2" xmlns="http://www.w3.org/2000/svg" viewBox="0 0 287.75 421.64">
  <defs>
    <style>
      .cls-1 {
        fill: #ebc58e;
      }

      .cls-2 {
        opacity: .15;
      }
    </style>
  </defs>
  <g id="Layer_2-2" data-name="Layer 2">
    <g class="cls-2">
      <ellipse class="cls-1" cx="190.74" cy="373.26" rx="21.02" ry="20.87"/>
      <ellipse class="cls-1" cx="190.74" cy="229.96" rx="21.02" ry="20.87"/>
      <path class="cls-1" d="m140.32,83.62l.46.46c27.77-8.88,56.45-18.68,84.67-29.85l9.18-17.09-.46-.68c-24.78,9.57-58.29,20.74-90.41,31.45l-3.44,15.72Z"/>
      <path class="cls-1" d="m123.34,233.1c0-24.76-15.87-32.33-25.34-32.33-8.65,0-24.11,8.8-24.11,31.71,0,14.12,8.04,27.21,23.69,27.21,8.04,0,25.76-7.16,25.76-26.6Zm-42.24-3.48c0-8.39,8.65-12.89,14.01-12.89,14.42,0,21.63,14.32,21.63,16.37,0,2.46-7.83,10.44-18.54,10.44-12.16,0-17.1-7.78-17.1-13.91Z"/>
      <path class="cls-1" d="m287.62,223.03c-1.14-22.97-8.96-41.83-23.57-56.6-3.24-3.28-6.8-6.25-10.74-8.77-3.11-2.15-6.48-4.04-10.04-5.68-13.72-6.37-30.62-9.59-50.7-9.59h-107.82c-3.18,0-6.35-.13-9.34-.44-18.04-1.58-32.85-8.01-44.54-19.24-13.66-13.12-20.46-30.54-20.46-52.24,0-20.44,7.18-36.97,21.6-49.53C46.38,8.39,65.38,2.08,89.01,2.08h124.08c4.51.19,8.26,1.96,11.18,5.17,2.92,3.22,4.38,7.19,4.38,11.92v5.17h3.24V0H29.3c-2.09,1.8-4.11,3.74-6.04,5.8C7.75,22.27,0,43.66,0,70.16s7.81,47.57,23.38,63.54c13.66,13.88,31,21.7,52.03,23.47,3.05.25,6.16.38,9.34.38h108.2c19.89,0,36.66,3.09,50.32,9.34,3.56,1.58,6.92,3.47,10.04,5.49,2.73,1.77,5.27,3.72,7.69,5.8,14.42,12.62,22.17,29.46,23.32,50.47-1.14,21.01-8.89,37.86-23.32,50.47-2.41,2.08-4.96,4.04-7.69,5.8-3.11,2.08-6.48,3.97-10.04,5.55-13.66,6.25-30.43,9.34-50.32,9.34h-108.2c-3.18,0-6.29.13-9.34.38-21.03,1.77-38.37,9.59-52.03,23.47-15.57,15.9-23.38,37.1-23.38,63.53,0,12.62,1.79,24.09,5.32,34.44h14.2c-6.06-9.93-9.11-21.5-9.11-34.75,0-21.7,6.8-39.12,20.46-52.24,11.69-11.23,26.49-17.67,44.54-19.24,2.99-.32,6.16-.44,9.34-.44h107.82c20.08,0,36.98-3.22,50.7-9.59,3.56-1.64,6.92-3.53,10.04-5.68,3.94-2.52,7.5-5.49,10.74-8.77,14.61-14.76,22.43-33.69,23.57-56.6h.13v-11.29h-.13Z"/>
    </g>
  </g>
</svg>